<?xml version="1.0" encoding="utf-8"?>
<svg version="1.1" xmlns:xlink="http://www.w3.org/1999/xlink" width="25px" height="40px" xmlns="http://www.w3.org/2000/svg">
  <defs>
    <filter x="684px" y="5890px" width="25px" height="40px" filterUnits="userSpaceOnUse" id="filter48">
      <feOffset dx="2" dy="2" in="SourceAlpha" result="shadowOffsetInner" />
      <feGaussianBlur stdDeviation="2.5" in="shadowOffsetInner" result="shadowGaussian" />
      <feComposite in2="shadowGaussian" operator="atop" in="SourceAlpha" result="shadowComposite" />
      <feColorMatrix type="matrix" values="0 0 0 0 0.1803921568627451  0 0 0 0 0.4549019607843137  0 0 0 0 0.7058823529411764  0 0 0 0.6470588235294118 0  " in="shadowComposite" />
    </filter>
    <g id="widget49">
      <path d="M 14.742268041237113 14.308617234468938  C 14.91408934707904 14.509018036072144  15 14.73947895791583  15 15  C 15 15.260521042084166  14.91408934707904 15.490981963927853  14.742268041237113 15.691382765531062  L 2.731958762886598 29.69939879759519  C 2.5601374570446738 29.8997995991984  2.3625429553264605 30  2.1391752577319587 30  C 1.9158075601374573 30  1.718213058419244 29.8997995991984  1.5463917525773194 29.69939879759519  L 0.2577319587628866 28.196392785571145  C 0.08591065292096225 27.995991983967933  0 27.76553106212425  0 27.50501002004008  C 0 27.24448897795591  0.08591065292096225 27.014028056112227  0.2577319587628866 26.81362725450902  L 10.38659793814433 15  L 0.2577319587628866 3.186372745490982  C 0.08591065292096225 2.9859719438877743  0 2.755511022044087  0 2.4949899799599207  C 0 2.2344689378757474  0.08591065292096225 2.004008016032061  0.2577319587628866 1.8036072144288562  L 1.5463917525773194 0.3006012024048099  C 1.718213058419244 0.1002004008016022  1.9158075601374573 0  2.1391752577319587 0  C 2.3625429553264605 0  2.5601374570446738 0.1002004008016022  2.731958762886598 0.3006012024048099  L 14.742268041237113 14.308617234468938  Z " fill-rule="nonzero" fill="#c1e1f0" stroke="none" transform="matrix(1 0 0 1 687 5893 )" />
    </g>
  </defs>
  <g transform="matrix(1 0 0 1 -684 -5890 )">
    <use xlink:href="#widget49" filter="url(#filter48)" />
    <use xlink:href="#widget49" />
  </g>
</svg>