<?xml version="1.0" encoding="utf-8"?>
<svg version="1.1" xmlns:xlink="http://www.w3.org/1999/xlink" width="25px" height="40px" xmlns="http://www.w3.org/2000/svg">
  <defs>
    <filter x="318px" y="5890px" width="25px" height="40px" filterUnits="userSpaceOnUse" id="filter50">
      <feOffset dx="2" dy="2" in="SourceAlpha" result="shadowOffsetInner" />
      <feGaussianBlur stdDeviation="2.5" in="shadowOffsetInner" result="shadowGaussian" />
      <feComposite in2="shadowGaussian" operator="atop" in="SourceAlpha" result="shadowComposite" />
      <feColorMatrix type="matrix" values="0 0 0 0 0.1803921568627451  0 0 0 0 0.4549019607843137  0 0 0 0 0.7058823529411764  0 0 0 0.6470588235294118 0  " in="shadowComposite" />
    </filter>
    <g id="widget51">
      <path d="M 0.25773195876288735 14.308617234468938  C 0.08591065292096023 14.509018036072144  0 14.73947895791583  0 15  C 0 15.260521042084166  0.08591065292096023 15.490981963927853  0.25773195876288735 15.691382765531062  L 12.268041237113401 29.69939879759519  C 12.439862542955325 29.8997995991984  12.637457044673539 30  12.860824742268042 30  C 13.084192439862543 30  13.281786941580755 29.8997995991984  13.45360824742268 29.69939879759519  L 14.742268041237113 28.196392785571145  C 14.914089347079038 27.995991983967933  15 27.76553106212425  15 27.50501002004008  C 15 27.24448897795591  14.914089347079038 27.014028056112227  14.742268041237113 26.81362725450902  L 4.613402061855671 15  L 14.742268041237113 3.186372745490982  C 14.914089347079038 2.9859719438877743  15 2.755511022044087  15 2.4949899799599207  C 15 2.2344689378757474  14.914089347079038 2.004008016032061  14.742268041237113 1.8036072144288562  L 13.45360824742268 0.3006012024048099  C 13.281786941580755 0.1002004008016022  13.084192439862543 0  12.860824742268042 0  C 12.637457044673539 0  12.439862542955325 0.1002004008016022  12.268041237113401 0.3006012024048099  L 0.25773195876288735 14.308617234468938  Z " fill-rule="nonzero" fill="#c1e1f0" stroke="none" transform="matrix(1 0 0 1 321 5893 )" />
    </g>
  </defs>
  <g transform="matrix(1 0 0 1 -318 -5890 )">
    <use xlink:href="#widget51" filter="url(#filter50)" />
    <use xlink:href="#widget51" />
  </g>
</svg>