<?xml version="1.0" encoding="utf-8"?>
<svg version="1.1" xmlns:xlink="http://www.w3.org/1999/xlink" width="24px" height="24px" xmlns="http://www.w3.org/2000/svg">
  <g transform="matrix(1 0 0 1 -839 -5576 )">
    <path d="M 22.392857142857142 4.973324658425503  C 23.464285714285715 6.508783344176967  24 8.182173064411192  24 9.993493819128172  C 24 11.804814573845153  23.464285714285715 13.478204294079372  22.392857142857142 15.01366297983084  C 21.32142857142857 16.549121665582305  19.86607142857143 17.761873780091086  18.026785714285715 18.651919323357188  C 16.1875 19.541964866623292  14.178571428571429 19.986987638256345  12 19.986987638256345  C 11.375 19.986987638256345  10.727678571428571 19.94534808067664  10.058035714285715 19.862068965517242  C 8.290178571428571 21.683799609629148  6.236607142857144 22.943396226415093  3.8973214285714284 23.64085881587508  C 3.4598214285714293 23.786597267404034  2.950892857142857 23.90110605074821  2.3705357142857144 23.98438516590761  C 2.21875 24.005204944697464  2.0825892857142856 23.9583604424203  1.9620535714285712 23.843851659076122  C 1.8415178571428572 23.72934287573195  1.7633928571428577 23.578399479505528  1.7276785714285712 23.39102147039688  L 1.7276785714285712 23.37540663630449  C 1.7008928571428574 23.33376707872479  1.6986607142857144 23.27130774235524  1.7209821428571428 23.188028627195838  C 1.7433035714285716 23.104749512036435  1.7522321428571432 23.052700065061806  1.7477678571428572 23.031880286271956  C 1.7433035714285716 23.011060507482107  1.7633928571428577 22.961613532856212  1.8080357142857142 22.883539362394274  L 1.8883928571428572 22.743005855562785  C 1.8883928571428572 22.743005855562785  1.9196428571428572 22.698763825634355  1.9821428571428572 22.61027976577749  C 2.0446428571428577 22.521795705920624  2.0803571428571432 22.47495120364346  2.0892857142857144 22.469746258945996  C 2.1517857142857144 22.3864671437866  2.290178571428571 22.20689655172414  2.5044642857142856 21.93103448275862  C 2.71875 21.655172413793103  2.872767857142857 21.457384515289526  2.966517857142857 21.337670787247884  C 3.0602678571428577 21.217957059206245  3.1986607142857144 21.012361743656474  3.3816964285714284 20.72088484059857  C 3.5647321428571432 20.429407937540663  3.7098214285714284 20.163955757970072  3.8169642857142856 19.924528301886795  C 3.9241071428571423 19.685100845803515  4.044642857142858 19.37800910865322  4.178571428571429 19.003253090435916  C 4.3125 18.628497072218607  4.428571428571429 18.232921275211453  4.526785714285714 17.816525699414445  C 3.125 16.890045543266098  2.0200892857142856 15.744957709824334  1.2120535714285714 14.381262199089134  C 0.4040178571428571 13.017566688353934  0 11.554977228366948  0 9.993493819128172  C 0 8.640208197787898  0.3169642857142857 7.346779440468446  0.9508928571428571 6.113207547169813  C 1.5848214285714286 4.879635653871179  2.4375 3.815224463240077  3.5089285714285716 2.9199739752765126  C 4.580357142857142 2.0247234873129454  5.857142857142858 1.3142485361093001  7.339285714285715 0.7885491216655822  C 8.821428571428573 0.26284970722185896  10.375 0  12 0  C 14.178571428571429 0  16.1875 0.4450227716330515  18.026785714285715 1.3350683148991545  C 19.86607142857143 2.2251138581652574  21.32142857142857 3.437865972674037  22.392857142857142 4.973324658425503  Z " fill-rule="nonzero" fill="#05396b" stroke="none" transform="matrix(1 0 0 1 839 5576 )" />
  </g>
</svg>