<?xml version="1.0" encoding="utf-8"?>
<svg version="1.1" xmlns:xlink="http://www.w3.org/1999/xlink" width="6px" height="12px" xmlns="http://www.w3.org/2000/svg">
  <g transform="matrix(1 0 0 1 -713 -862 )">
    <path d="M 5.742857142857143 8.88888888888889  C 5.851948051948052 8.88888888888889  5.927272727272728 8.93287037037037  5.968831168831169 9.020833333333334  C 6.010389610389611 9.108796296296298  5.997402597402598 9.189814814814813  5.92987012987013 9.26388888888889  L 3.2025974025974024 11.930555555555555  C 3.150649350649351 11.976851851851851  3.090909090909091 12  3.023376623376623 12  C 2.9506493506493507 12  2.8883116883116884 11.976851851851851  2.8363636363636364 11.930555555555555  L 0.07012987012987013 9.26388888888889  C 0.0025974025974025913 9.189814814814813  -0.010389610389610395 9.108796296296298  0.03116883116883117 9.020833333333334  C 0.07792207792207792 8.93287037037037  0.15324675324675324 8.88888888888889  0.2571428571428571 8.88888888888889  L 2.0025974025974027 8.88888888888889  L 2.0025974025974027 0.22222222222222188  C 2.0025974025974027 0.1574074074074061  2.025974025974026 0.10416666666666696  2.0727272727272728 0.06250000000000044  C 2.1194805194805193 0.020833333333333925  2.1792207792207794 0  2.251948051948052 0  L 3.7480519480519483 0  C 3.8207792207792206 0  3.8805194805194807 0.020833333333333925  3.9272727272727272 0.06250000000000044  C 3.974025974025974 0.10416666666666696  3.9974025974025977 0.1574074074074061  3.9974025974025977 0.22222222222222188  L 3.9974025974025977 8.88888888888889  L 5.742857142857143 8.88888888888889  Z " fill-rule="nonzero" fill="#05396b" stroke="none" transform="matrix(1 0 0 1 713 862 )" />
  </g>
</svg>