<?xml version="1.0" encoding="utf-8"?>
<svg version="1.1" xmlns:xlink="http://www.w3.org/1999/xlink" width="36px" height="21px" xmlns="http://www.w3.org/2000/svg">
  <g transform="matrix(1 0 0 1 -854 -2450 )">
    <path d="M 35.63927855711423 2.164948453608247  C 35.879759519038075 2.4054982817869353  36 2.6821305841924374  36 2.994845360824743  C 36 3.3075601374570422  35.879759519038075 3.5841924398625395  35.63927855711423 3.8247422680412377  L 18.829659318637272 20.639175257731956  C 18.58917835671343 20.879725085910646  18.312625250501004 21  18 21  C 17.687374749499 21  17.410821643286575 20.879725085910646  17.170340681362724 20.639175257731956  L 0.3607214428857715 3.8247422680412377  C 0.12024048096192419 3.5841924398625395  0 3.3075601374570422  0 2.994845360824743  C 0 2.6821305841924374  0.12024048096192419 2.4054982817869353  0.3607214428857715 2.164948453608247  L 2.164328657314629 0.3608247422680423  C 2.4048096192384776 0.12027491408934432  2.681362725450902 0  2.993987975951904 0  C 3.3066132264529067 0  3.583166332665331 0.12027491408934432  3.823647294589178 0.3608247422680423  L 18 14.541237113402062  L 32.17635270541082 0.3608247422680423  C 32.41683366733467 0.12027491408934432  32.6933867735471 0  33.0060120240481 0  C 33.318637274549104 0  33.59519038076153 0.12027491408934432  33.83567134268537 0.3608247422680423  L 35.63927855711423 2.164948453608247  Z " fill-rule="nonzero" fill="#6f6f6f" stroke="none" transform="matrix(1 0 0 1 854 2450 )" />
  </g>
</svg>