<?xml version="1.0" encoding="utf-8"?>
<svg version="1.1" xmlns:xlink="http://www.w3.org/1999/xlink" width="20px" height="20px" xmlns="http://www.w3.org/2000/svg">
  <defs>
    <filter x="198px" y="5844px" width="20px" height="20px" filterUnits="userSpaceOnUse" id="filter35">
      <feOffset dx="2" dy="2" in="SourceAlpha" result="shadowOffsetInner" />
      <feGaussianBlur stdDeviation="2.5" in="shadowOffsetInner" result="shadowGaussian" />
      <feComposite in2="shadowGaussian" operator="atop" in="SourceAlpha" result="shadowComposite" />
      <feColorMatrix type="matrix" values="0 0 0 0 0.1803921568627451  0 0 0 0 0.4549019607843137  0 0 0 0 0.7058823529411764  0 0 0 0.6470588235294118 0  " in="shadowComposite" />
    </filter>
    <g id="widget36">
      <path d="M 6.8329326923076925 6.1247637051039705  L 7.127403846153846 5.828607435412728  L 8.671875 4.253308128544423  L 6.532451923076923 3.9256458727158163  L 6.1358173076923075 3.8626339004410837  L 5.955528846153846 3.48456206679269  L 5 1.4555765595463133  L 5 7.5236294896030245  L 5.3545673076923075 7.718966603654694  L 7.265625 8.777567737870196  L 6.905048076923077 6.5406427221172025  L 6.8329326923076925 6.1247637051039705  Z M 9.987980769230768 3.802772526780088  C 10.024038461538463 3.91829447595043  9.97596153846154 4.043268220961982  9.84375 4.177693761814744  L 7.662259615384616 6.408317580340265  L 8.179086538461538 9.558916194076874  C 8.199118589743591 9.697542533081286  8.18709935897436 9.805713085486243  8.143028846153847 9.883427851291746  C 8.098958333333334 9.961142617097249  8.03084935897436 10  7.938701923076923 10  C 7.870592948717949 10  7.7904647435897445 9.974795211090107  7.6983173076923075 9.924385633270322  L 5 8.437303087586642  L 2.301682692307692 9.924385633270322  C 2.2095352564102564 9.974795211090107  2.1294070512820515 10  2.0612980769230766 10  C 1.9691506410256412 10  1.901041666666667 9.961142617097249  1.856971153846154 9.883427851291746  C 1.8129006410256412 9.805713085486243  1.8008814102564101 9.697542533081286  1.8209134615384615 9.558916194076874  L 2.3377403846153846 6.408317580340265  L 0.1502403846153846 4.177693761814744  C 0.0220352564102564 4.043268220961982  -0.02403846153846154 3.91829447595043  0.01201923076923077 3.802772526780088  C 0.04807692307692308 3.6872505776097455  0.15625 3.614786809493804  0.3365384615384615 3.5853812224322623  L 3.353365384615384 3.1253938248267166  L 4.705528846153847 0.2583490863264015  C 4.785657051282052 0.08611636210880014  4.883814102564103 0  5 0  C 5.112179487179488 0  5.210336538461538 0.08611636210880014  5.294471153846154 0.2583490863264015  L 6.646634615384616 3.1253938248267166  L 9.663461538461538 3.5853812224322623  C 9.843750000000002 3.614786809493804  9.951923076923078 3.6872505776097455  9.987980769230768 3.802772526780088  Z " fill-rule="nonzero" fill="#ffffff" stroke="none" transform="matrix(1 0 0 1 201 5847 )" />
    </g>
  </defs>
  <g transform="matrix(1 0 0 1 -198 -5844 )">
    <use xlink:href="#widget36" filter="url(#filter35)" />
    <use xlink:href="#widget36" />
  </g>
</svg>