<?xml version="1.0" encoding="utf-8"?>
<svg version="1.1" xmlns:xlink="http://www.w3.org/1999/xlink" width="21px" height="42px" xmlns="http://www.w3.org/2000/svg">
  <g transform="matrix(1 0 0 1 -965 -3355 )">
    <path d="M 20.639175257731956 20.032064128256515  C 20.879725085910657 20.312625250501  21 20.635270541082164  21 21  C 21 21.364729458917832  20.879725085910657 21.687374749498996  20.639175257731956 21.967935871743485  L 3.824742268041237 41.57915831663327  C 3.584192439862543 41.859719438877754  3.3075601374570445 42  2.9948453608247423 42  C 2.68213058419244 42  2.405498281786942 41.859719438877754  2.1649484536082473 41.57915831663327  L 0.3608247422680413 39.474949899799604  C 0.12027491408934717 39.194388777555105  0 38.87174348697395  0 38.50701402805611  C 0 38.142284569138276  0.12027491408934717 37.81963927855712  0.3608247422680413 37.53907815631263  L 14.541237113402062 21  L 0.3608247422680413 4.460921843687375  C 0.12027491408934717 4.1803607214428835  0 3.857715430861722  0 3.492985971943889  C 0 3.128256513026047  0.12027491408934717 2.8056112224448846  0.3608247422680413 2.5250501002003984  L 2.1649484536082473 0.4208416833667339  C 2.405498281786942 0.14028056112224307  2.68213058419244 0  2.9948453608247423 0  C 3.3075601374570445 0  3.584192439862543 0.14028056112224307  3.824742268041237 0.4208416833667339  L 20.639175257731956 20.032064128256515  Z " fill-rule="nonzero" fill="#ffffff" stroke="none" fill-opacity="0.4980392156862745" transform="matrix(1 0 0 1 965 3355 )" />
  </g>
</svg>