<?xml version="1.0" encoding="utf-8"?>
<svg version="1.1" xmlns:xlink="http://www.w3.org/1999/xlink" width="21px" height="42px" xmlns="http://www.w3.org/2000/svg">
  <g transform="matrix(1 0 0 1 -19 -3380 )">
    <path d="M 0.3608247422680423 20.032064128256515  C 0.12027491408934432 20.312625250501  0 20.635270541082164  0 21  C 0 21.364729458917832  0.12027491408934432 21.687374749498996  0.3608247422680423 21.967935871743485  L 17.175257731958762 41.57915831663327  C 17.415807560137456 41.859719438877754  17.692439862542955 42  18.00515463917526 42  C 18.31786941580756 42  18.594501718213056 41.859719438877754  18.835051546391753 41.57915831663327  L 20.639175257731956 39.474949899799604  C 20.879725085910653 39.194388777555105  21 38.87174348697395  21 38.50701402805611  C 21 38.142284569138276  20.879725085910653 37.81963927855712  20.639175257731956 37.53907815631263  L 6.458762886597938 21  L 20.639175257731956 4.460921843687375  C 20.879725085910653 4.1803607214428835  21 3.857715430861722  21 3.492985971943889  C 21 3.128256513026047  20.879725085910653 2.8056112224448846  20.639175257731956 2.5250501002003984  L 18.835051546391753 0.4208416833667339  C 18.594501718213056 0.14028056112224307  18.31786941580756 0  18.00515463917526 0  C 17.692439862542955 0  17.415807560137456 0.14028056112224307  17.175257731958762 0.4208416833667339  L 0.3608247422680423 20.032064128256515  Z " fill-rule="nonzero" fill="#ffffff" stroke="none" fill-opacity="0.4980392156862745" transform="matrix(1 0 0 1 19 3380 )" />
  </g>
</svg>