<?xml version="1.0" encoding="utf-8"?>
<svg version="1.1" xmlns:xlink="http://www.w3.org/1999/xlink" width="21px" height="16px" xmlns="http://www.w3.org/2000/svg">
  <g transform="matrix(1 0 0 1 -405 -7410 )">
    <path d="M 19.828125 6.147727272727273  C 20.273437500000004 5.852272727272727  20.6640625 5.522727272727273  21 5.159090909090908  L 21 14.181818181818182  C 21 14.681818181818182  20.816406250000004 15.109848484848486  20.44921875 15.465909090909092  C 20.082031250000004 15.821969696969695  19.640625000000004 16  19.125 16  L 1.875 16  C 1.3593750000000002 16  0.9179687500000001 15.821969696969695  0.5507812500000001 15.465909090909092  C 0.18359375000000008 15.109848484848486  0 14.681818181818182  0 14.181818181818182  L 0 5.159090909090908  C 0.3437500000000001 5.530303030303029  0.7382812500000001 5.859848484848483  1.18359375 6.147727272727273  C 4.011718750000001 8.011363636363637  5.953125 9.318181818181818  7.0078125 10.068181818181818  C 7.453125 10.386363636363637  7.814453125000001 10.634469696969695  8.091796875 10.8125  C 8.369140625 10.990530303030301  8.73828125 11.172348484848484  9.19921875 11.357954545454547  C 9.660156250000002 11.543560606060606  10.08984375 11.636363636363637  10.48828125 11.636363636363637  L 10.5 11.636363636363637  L 10.51171875 11.636363636363637  C 10.910156250000002 11.636363636363637  11.33984375 11.543560606060606  11.80078125 11.357954545454547  C 12.261718750000004 11.172348484848484  12.630859375000004 10.990530303030301  12.908203125 10.8125  C 13.185546875 10.634469696969695  13.546875 10.386363636363637  13.992187500000002 10.068181818181818  C 15.320312500000002 9.136363636363637  17.265625000000004 7.829545454545455  19.828125 6.147727272727273  Z M 20.443359375 0.5340909090909083  C 20.814453125 0.8901515151515138  21 1.3181818181818183  21 1.8181818181818183  C 21 2.4166666666666643  20.80859375 2.9886363636363633  20.42578125 3.5340909090909083  C 20.04296875 4.079545454545455  19.566406250000004 4.545454545454545  18.99609375 4.931818181818182  C 16.058593750000004 6.909090909090908  14.230468750000004 8.140151515151516  13.51171875 8.625  C 13.433593750000002 8.678030303030303  13.267578125 8.793560606060606  13.013671875 8.97159090909091  C 12.759765625000002 9.149621212121211  12.548828125000004 9.293560606060606  12.380859374999998 9.40340909090909  C 12.212890625 9.513257575757574  12.009765625000002 9.636363636363637  11.771484375 9.772727272727273  C 11.533203125 9.90909090909091  11.30859375 10.011363636363637  11.09765625 10.079545454545453  C 10.88671875 10.147727272727273  10.69140625 10.181818181818182  10.51171875 10.181818181818182  L 10.5 10.181818181818182  L 10.48828125 10.181818181818182  C 10.30859375 10.181818181818182  10.11328125 10.147727272727273  9.90234375 10.079545454545453  C 9.69140625 10.011363636363637  9.466796875 9.90909090909091  9.228515625 9.772727272727273  C 8.990234375 9.636363636363637  8.787109375 9.513257575757574  8.619140625 9.40340909090909  C 8.451171875 9.293560606060606  8.240234375 9.149621212121211  7.986328125 8.97159090909091  C 7.732421875000001 8.793560606060606  7.566406250000002 8.678030303030303  7.488281250000001 8.625  C 6.77734375 8.140151515151516  5.75390625 7.448863636363637  4.41796875 6.551136363636363  C 3.08203125 5.65340909090909  2.2812500000000004 5.1136363636363615  2.015625 4.931818181818182  C 1.53125 4.6136363636363615  1.0742187500000002 4.176136363636363  0.6445312500000001 3.6193181818181817  C 0.21484375000000008 3.0625  0 2.545454545454545  0 2.0681818181818183  C 0 1.4772727272727266  0.16210937500000006 0.9848484848484826  0.4863281250000001 0.5909090909090917  C 0.8105468750000002 0.19696969696969546  1.2734375000000002 0  1.875 0  L 19.125 0  C 19.6328125 0  20.072265625 0.17803030303030098  20.443359375 0.5340909090909083  Z " fill-rule="nonzero" fill="#ffffff" stroke="none" transform="matrix(1 0 0 1 405 7410 )" />
  </g>
</svg>