<?xml version="1.0" encoding="utf-8"?>
<svg version="1.1" xmlns:xlink="http://www.w3.org/1999/xlink" width="20px" height="20px" xmlns="http://www.w3.org/2000/svg">
  <g transform="matrix(1 0 0 1 -406 -7448 )">
    <path d="M 4.98046875 1.3411458333333326  C 6.512586805555555 0.4470486111111094  8.18576388888889 0  10 0  C 11.81423611111111 0  13.487413194444446 0.4470486111111094  15.01953125 1.3411458333333326  C 16.551649305555557 2.2352430555555536  17.764756944444446 3.448350694444444  18.658854166666668 4.98046875  C 19.552951388888886 6.512586805555554  20 8.185763888888886  20 10  C 20 11.81423611111111  19.552951388888886 13.487413194444443  18.658854166666668 15.01953125  C 17.764756944444446 16.551649305555557  16.551649305555557 17.764756944444443  15.01953125 18.658854166666668  C 13.487413194444446 19.55295138888889  11.81423611111111 20  10 20  C 8.18576388888889 20  6.512586805555555 19.55295138888889  4.98046875 18.658854166666668  C 3.4483506944444446 17.764756944444443  2.235243055555556 16.551649305555557  1.3411458333333335 15.01953125  C 0.44704861111111105 13.487413194444443  0 11.81423611111111  0 10  C 0 8.185763888888886  0.44704861111111105 6.512586805555554  1.3411458333333335 4.98046875  C 2.235243055555556 3.448350694444444  3.4483506944444446 2.2352430555555536  4.98046875 1.3411458333333326  Z M 14.127604166666668 6.627604166666668  C 13.980034722222223 6.584201388888886  13.793402777777779 6.636284722222221  13.567708333333332 6.783854166666668  C 13.550347222222223 6.792534722222221  13.509114583333332 6.833767361111109  13.444010416666668 6.907552083333332  C 13.37890625 6.981336805555555  13.3203125 7.022569444444445  13.268229166666668 7.03125  C 13.285590277777779 7.03125  13.305121527777779 7.009548611111109  13.326822916666668 6.966145833333332  C 13.348524305555555 6.922743055555555  13.370225694444446 6.875  13.391927083333332 6.822916666666668  C 13.413628472222223 6.770833333333332  13.428819444444446 6.740451388888888  13.4375 6.731770833333332  C 13.489583333333332 6.671006944444445  13.585069444444446 6.605902777777777  13.723958333333332 6.536458333333332  C 13.845486111111114 6.484375  14.071180555555555 6.432291666666668  14.401041666666668 6.380208333333332  C 14.696180555555555 6.310763888888886  14.917534722222223 6.358506944444445  15.065104166666668 6.5234375  C 15.047743055555555 6.506076388888886  15.088975694444446 6.449652777777777  15.188802083333332 6.354166666666668  C 15.288628472222223 6.258680555555554  15.3515625 6.206597222222221  15.377604166666668 6.197916666666668  C 15.403645833333332 6.180555555555554  15.46875 6.161024305555554  15.572916666666668 6.139322916666668  C 15.677083333333332 6.117621527777777  15.7421875 6.085069444444445  15.768229166666668 6.041666666666668  L 15.794270833333332 5.755208333333332  C 15.690104166666668 5.763888888888886  15.614149305555555 5.733506944444445  15.56640625 5.6640625  C 15.518663194444446 5.594618055555554  15.490451388888891 5.503472222222221  15.481770833333332 5.390625  C 15.481770833333332 5.407986111111109  15.455729166666668 5.442708333333332  15.403645833333332 5.494791666666668  C 15.403645833333332 5.434027777777777  15.384114583333332 5.399305555555554  15.345052083333332 5.390625  C 15.305989583333332 5.381944444444445  15.256076388888891 5.386284722222221  15.1953125 5.403645833333332  C 15.134548611111114 5.421006944444445  15.095486111111114 5.425347222222221  15.078125 5.416666666666668  C 14.991319444444446 5.390625  14.926215277777779 5.358072916666668  14.8828125 5.319010416666668  C 14.839409722222223 5.279947916666668  14.8046875 5.208333333333332  14.778645833333332 5.104166666666668  C 14.752604166666668 5  14.735243055555555 4.934895833333332  14.7265625 4.908854166666668  C 14.709201388888891 4.865451388888886  14.66796875 4.817708333333332  14.602864583333332 4.765625  C 14.537760416666668 4.713541666666668  14.496527777777779 4.670138888888886  14.479166666666668 4.635416666666668  C 14.470486111111114 4.618055555555554  14.459635416666668 4.594184027777777  14.446614583333332 4.563802083333332  C 14.43359375 4.533420138888886  14.420572916666668 4.505208333333332  14.407552083333332 4.479166666666668  C 14.39453125 4.453125  14.377170138888891 4.429253472222221  14.35546875 4.407552083333332  C 14.333767361111114 4.385850694444445  14.309895833333332 4.375  14.283854166666668 4.375  C 14.2578125 4.375  14.227430555555555 4.396701388888886  14.192708333333332 4.440104166666668  C 14.157986111111114 4.483506944444445  14.125434027777779 4.526909722222221  14.095052083333332 4.5703125  C 14.064670138888891 4.613715277777777  14.045138888888891 4.635416666666668  14.036458333333332 4.635416666666668  C 14.010416666666668 4.618055555555554  13.984375 4.611545138888886  13.958333333333332 4.615885416666668  C 13.932291666666668 4.620225694444445  13.912760416666668 4.624565972222221  13.899739583333332 4.62890625  C 13.88671875 4.633246527777777  13.8671875 4.646267361111109  13.841145833333332 4.66796875  C 13.815104166666668 4.689670138888886  13.793402777777779 4.704861111111109  13.776041666666668 4.713541666666668  C 13.75 4.730902777777777  13.713107638888891 4.743923611111109  13.665364583333332 4.752604166666668  C 13.617621527777779 4.761284722222221  13.580729166666668 4.769965277777777  13.5546875 4.778645833333332  C 13.684895833333332 4.735243055555554  13.680555555555555 4.6875  13.541666666666668 4.635416666666668  C 13.454861111111114 4.600694444444445  13.385416666666668 4.587673611111109  13.333333333333332 4.596354166666668  C 13.411458333333332 4.561631944444445  13.444010416666668 4.509548611111109  13.430989583333332 4.440104166666668  C 13.41796875 4.370659722222221  13.381076388888891 4.309895833333332  13.3203125 4.2578125  L 13.385416666666668 4.2578125  C 13.376736111111114 4.223090277777777  13.33984375 4.186197916666668  13.274739583333332 4.147135416666668  C 13.209635416666668 4.108072916666668  13.133680555555555 4.071180555555554  13.046875 4.036458333333332  C 12.960069444444445 4.001736111111109  12.903645833333332 3.975694444444444  12.877604166666668 3.9583333333333326  C 12.808159722222223 3.9149305555555536  12.660590277777779 3.8736979166666674  12.434895833333332 3.8346354166666674  C 12.209201388888891 3.7955729166666674  12.065972222222223 3.793402777777777  12.005208333333332 3.828125  C 11.961805555555555 3.8802083333333326  11.942274305555555 3.92578125  11.946614583333332 3.96484375  C 11.950954861111114 4.00390625  11.968315972222223 4.064670138888886  11.998697916666668 4.147135416666668  C 12.02907986111111 4.229600694444445  12.044270833333332 4.283854166666668  12.044270833333332 4.309895833333332  C 12.052951388888891 4.361979166666668  12.02907986111111 4.418402777777777  11.97265625 4.479166666666668  C 11.916232638888891 4.539930555555554  11.888020833333332 4.592013888888886  11.888020833333332 4.635416666666668  C 11.888020833333332 4.696180555555554  11.948784722222223 4.763454861111109  12.0703125 4.837239583333332  C 12.191840277777779 4.911024305555554  12.235243055555555 5.004340277777777  12.200520833333332 5.1171875  C 12.174479166666668 5.186631944444445  12.105034722222223 5.256076388888886  11.9921875 5.325520833333332  C 11.879340277777779 5.394965277777777  11.809895833333332 5.447048611111109  11.783854166666668 5.481770833333332  C 11.740451388888891 5.551215277777777  11.733940972222223 5.631510416666668  11.764322916666668 5.72265625  C 11.79470486111111 5.813802083333332  11.840277777777779 5.885416666666668  11.901041666666668 5.9375  C 11.918402777777779 5.954861111111109  11.924913194444445 5.972222222222221  11.920572916666668 5.989583333333332  C 11.916232638888891 6.006944444444445  11.901041666666668 6.026475694444445  11.875 6.048177083333332  C 11.848958333333336 6.069878472222221  11.825086805555555 6.087239583333332  11.803385416666668 6.100260416666668  C 11.781684027777779 6.11328125  11.753472222222223 6.128472222222221  11.71875 6.145833333333332  L 11.6796875 6.171875  C 11.584201388888891 6.215277777777777  11.495225694444445 6.189236111111109  11.412760416666668 6.09375  C 11.330295138888891 5.998263888888886  11.271701388888891 5.885416666666668  11.236979166666668 5.755208333333332  C 11.176215277777779 5.538194444444445  11.106770833333332 5.407986111111109  11.028645833333332 5.364583333333332  C 10.828993055555555 5.295138888888886  10.703125 5.299479166666668  10.651041666666668 5.377604166666668  C 10.607638888888891 5.264756944444445  10.429687500000002 5.151909722222221  10.1171875 5.0390625  C 9.90017361111111 4.9609375  9.6484375 4.943576388888886  9.361979166666666 4.986979166666668  C 9.4140625 4.978298611111109  9.4140625 4.913194444444445  9.361979166666666 4.791666666666668  C 9.301215277777779 4.661458333333332  9.21875 4.609375  9.114583333333334 4.635416666666668  C 9.140625 4.583333333333332  9.15798611111111 4.507378472222221  9.166666666666666 4.407552083333332  C 9.175347222222223 4.307725694444445  9.1796875 4.249131944444445  9.1796875 4.231770833333332  C 9.205729166666666 4.118923611111109  9.2578125 4.019097222222221  9.3359375 3.9322916666666674  C 9.344618055555557 3.9236111111111094  9.375 3.88671875  9.427083333333334 3.8216145833333326  C 9.479166666666666 3.7565104166666674  9.520399305555557 3.6979166666666674  9.55078125 3.6458333333333326  C 9.581163194444445 3.59375  9.583333333333334 3.5677083333333326  9.557291666666666 3.5677083333333326  C 9.86111111111111 3.6024305555555536  10.078125 3.5546875  10.208333333333332 3.4244791666666674  C 10.251736111111114 3.381076388888886  10.301649305555555 3.3072916666666674  10.358072916666668 3.203125  C 10.414496527777779 3.0989583333333326  10.460069444444445 3.0251736111111094  10.494791666666668 2.9817708333333326  C 10.572916666666668 2.9296875  10.633680555555555 2.905815972222221  10.677083333333332 2.91015625  C 10.720486111111114 2.914496527777777  10.783420138888891 2.9383680555555536  10.865885416666668 2.9817708333333326  C 10.948350694444445 3.0251736111111094  11.011284722222223 3.046875  11.0546875 3.046875  C 11.176215277777779 3.0555555555555536  11.243489583333332 3.0078125  11.256510416666668 2.9036458333333326  C 11.26953125 2.7994791666666674  11.236979166666668 2.7126736111111094  11.158854166666668 2.6432291666666674  C 11.263020833333332 2.651909722222221  11.276041666666668 2.578125  11.197916666666668 2.421875  C 11.163194444444445 2.3611111111111094  11.128472222222223 2.3220486111111094  11.09375 2.3046875  C 10.989583333333336 2.269965277777777  10.872395833333336 2.2916666666666674  10.7421875 2.3697916666666674  C 10.672743055555555 2.404513888888886  10.68142361111111 2.4392361111111094  10.768229166666668 2.4739583333333326  C 10.75954861111111 2.465277777777777  10.718315972222223 2.510850694444444  10.64453125 2.6106770833333326  C 10.570746527777779 2.710503472222221  10.499131944444445 2.7864583333333326  10.4296875 2.8385416666666674  C 10.360243055555555 2.890625  10.29079861111111 2.8689236111111094  10.221354166666668 2.7734375  C 10.21267361111111 2.764756944444444  10.188802083333332 2.706163194444444  10.149739583333332 2.59765625  C 10.110677083333332 2.4891493055555536  10.069444444444445 2.4305555555555536  10.026041666666668 2.421875  C 9.956597222222223 2.421875  9.887152777777779 2.4869791666666674  9.817708333333334 2.6171875  C 9.84375 2.5477430555555536  9.796006944444445 2.482638888888886  9.674479166666666 2.421875  C 9.55295138888889 2.3611111111111094  9.448784722222223 2.326388888888886  9.361979166666666 2.3177083333333326  C 9.526909722222223 2.2135416666666674  9.4921875 2.0963541666666674  9.2578125 1.9661458333333326  C 9.19704861111111 1.9314236111111094  9.108072916666666 1.909722222222221  8.990885416666666 1.9010416666666674  C 8.873697916666666 1.8923611111111094  8.7890625 1.909722222222221  8.736979166666666 1.953125  C 8.69357638888889 2.013888888888886  8.66970486111111 2.0638020833333326  8.665364583333334 2.1028645833333326  C 8.661024305555557 2.1419270833333326  8.682725694444445 2.1766493055555536  8.73046875 2.20703125  C 8.778211805555557 2.237413194444444  8.823784722222223 2.261284722222221  8.8671875 2.2786458333333326  C 8.910590277777779 2.296006944444444  8.960503472222223 2.3133680555555536  9.016927083333334 2.3307291666666674  C 9.073350694444445 2.348090277777777  9.110243055555557 2.3611111111111094  9.127604166666666 2.3697916666666674  C 9.249131944444445 2.456597222222221  9.283854166666666 2.5173611111111094  9.231770833333334 2.5520833333333326  C 9.214409722222223 2.560763888888886  9.17751736111111 2.5759548611111094  9.12109375 2.59765625  C 9.06467013888889 2.619357638888886  9.014756944444445 2.638888888888886  8.971354166666666 2.65625  C 8.92795138888889 2.6736111111111094  8.901909722222223 2.690972222222221  8.893229166666666 2.7083333333333326  C 8.8671875 2.7430555555555536  8.8671875 2.803819444444444  8.893229166666666 2.890625  C 8.919270833333334 2.9774305555555536  8.910590277777779 3.038194444444444  8.8671875 3.0729166666666674  C 8.823784722222223 3.029513888888886  8.784722222222223 2.953559027777777  8.75 2.8450520833333326  C 8.715277777777779 2.736545138888886  8.684895833333334 2.6649305555555536  8.658854166666666 2.6302083333333326  C 8.719618055555557 2.7083333333333326  8.61111111111111 2.734375  8.333333333333334 2.7083333333333326  L 8.203125 2.6953125  C 8.168402777777779 2.6953125  8.098958333333334 2.7039930555555536  7.994791666666666 2.7213541666666674  C 7.890625 2.738715277777777  7.801649305555557 2.7430555555555536  7.727864583333334 2.734375  C 7.654079861111112 2.725694444444444  7.595486111111112 2.690972222222221  7.552083333333334 2.6302083333333326  C 7.517361111111112 2.560763888888886  7.517361111111112 2.4739583333333326  7.552083333333334 2.3697916666666674  C 7.560763888888889 2.335069444444444  7.578125 2.326388888888886  7.604166666666666 2.34375  C 7.5694444444444455 2.3177083333333326  7.521701388888889 2.276475694444444  7.4609375 2.2200520833333326  C 7.400173611111112 2.163628472222221  7.356770833333334 2.1267361111111094  7.330729166666666 2.109375  C 6.931423611111112 2.2395833333333326  6.5234375 2.417534722222221  6.106770833333334 2.6432291666666674  C 6.158854166666666 2.651909722222221  6.2109375 2.647569444444444  6.263020833333334 2.6302083333333326  C 6.306423611111112 2.612847222222221  6.362847222222223 2.5846354166666674  6.432291666666666 2.5455729166666674  C 6.501736111111112 2.5065104166666674  6.545138888888889 2.482638888888886  6.5625 2.4739583333333326  C 6.857638888888889 2.3524305555555536  7.039930555555557 2.3220486111111094  7.109375 2.3828125  L 7.174479166666666 2.3177083333333326  C 7.2960069444444455 2.456597222222221  7.3828125 2.5651041666666674  7.434895833333334 2.6432291666666674  C 7.3741319444444455 2.608506944444444  7.243923611111112 2.6041666666666674  7.044270833333334 2.6302083333333326  C 6.870659722222223 2.6822916666666674  6.775173611111112 2.734375  6.7578125 2.7864583333333326  C 6.818576388888889 2.890625  6.840277777777778 2.96875  6.822916666666666 3.0208333333333326  C 6.7881944444444455 2.9947916666666674  6.73828125 2.951388888888886  6.673177083333334 2.890625  C 6.608072916666666 2.8298611111111094  6.545138888888889 2.7821180555555536  6.484375 2.7473958333333326  C 6.423611111111112 2.7126736111111094  6.3585069444444455 2.690972222222221  6.2890625 2.6822916666666674  C 6.150173611111112 2.6822916666666674  6.0546875 2.686631944444444  6.002604166666666 2.6953125  C 4.735243055555555 3.389756944444444  3.7152777777777786 4.353298611111109  2.942708333333333 5.5859375  C 3.0034722222222228 5.646701388888886  3.055555555555556 5.681423611111109  3.098958333333333 5.690104166666668  C 3.133680555555556 5.698784722222221  3.1553819444444446 5.737847222222221  3.1640625 5.807291666666668  C 3.172743055555556 5.876736111111109  3.18359375 5.924479166666668  3.196614583333333 5.950520833333332  C 3.209635416666667 5.9765625  3.259548611111111 5.963541666666668  3.346354166666667 5.911458333333332  C 3.424479166666667 5.980902777777777  3.4375 6.063368055555554  3.385416666666667 6.158854166666668  C 3.3940972222222228 6.150173611111109  3.5850694444444446 6.267361111111109  3.958333333333333 6.510416666666668  C 4.123263888888889 6.657986111111109  4.214409722222222 6.749131944444445  4.231770833333333 6.783854166666668  C 4.2578125 6.879340277777777  4.214409722222222 6.957465277777777  4.1015625 7.018229166666668  C 4.092881944444445 7.000868055555555  4.053819444444445 6.961805555555555  3.984375 6.901041666666668  C 3.914930555555556 6.840277777777777  3.875868055555556 6.822916666666665  3.8671875 6.848958333333332  C 3.841145833333333 6.892361111111109  3.8433159722222228 6.97265625  3.873697916666667 7.08984375  C 3.9040798611111116 7.20703125  3.9496527777777786 7.261284722222221  4.010416666666667 7.252604166666668  C 3.9496527777777786 7.252604166666668  3.908420138888889 7.322048611111109  3.88671875 7.4609375  C 3.8650173611111116 7.599826388888886  3.854166666666667 7.753906249999998  3.854166666666667 7.923177083333332  C 3.854166666666667 8.092447916666664  3.849826388888889 8.194444444444445  3.841145833333333 8.229166666666668  L 3.8671875 8.2421875  C 3.841145833333333 8.346354166666668  3.8650173611111116 8.49609375  3.938802083333333 8.69140625  C 4.012586805555555 8.88671875  4.105902777777779 8.971354166666668  4.21875 8.9453125  C 4.105902777777779 8.971354166666668  4.192708333333333 9.157986111111109  4.479166666666667 9.505208333333332  C 4.53125 9.574652777777777  4.565972222222222 9.613715277777777  4.583333333333333 9.622395833333332  C 4.609375 9.639756944444445  4.661458333333333 9.672309027777777  4.739583333333333 9.720052083333332  C 4.817708333333333 9.76779513888889  4.8828125 9.811197916666668  4.934895833333333 9.850260416666668  C 4.986979166666667 9.889322916666668  5.0303819444444455 9.934895833333332  5.065104166666666 9.986979166666668  C 5.099826388888889 10.030381944444443  5.143229166666668 10.128038194444443  5.1953125 10.279947916666664  C 5.247395833333334 10.43185763888889  5.308159722222223 10.533854166666664  5.377604166666666 10.5859375  C 5.360243055555557 10.638020833333336  5.4014756944444455 10.72482638888889  5.501302083333334 10.846354166666664  C 5.601128472222222 10.967881944444443  5.646701388888889 11.067708333333336  5.638020833333334 11.145833333333336  C 5.629340277777778 11.145833333333336  5.618489583333334 11.15017361111111  5.60546875 11.158854166666664  C 5.592447916666668 11.167534722222223  5.581597222222223 11.171875  5.572916666666666 11.171875  C 5.598958333333334 11.23263888888889  5.666232638888889 11.293402777777777  5.774739583333334 11.354166666666664  C 5.883246527777778 11.414930555555554  5.950520833333334 11.471354166666664  5.9765625 11.5234375  C 5.985243055555555 11.549479166666664  5.993923611111112 11.592881944444443  6.002604166666666 11.653645833333336  C 6.011284722222223 11.714409722222223  6.024305555555557 11.762152777777777  6.041666666666666 11.796875  C 6.059027777777778 11.831597222222223  6.09375 11.840277777777777  6.145833333333334 11.822916666666664  C 6.1631944444444455 11.649305555555554  6.059027777777778 11.380208333333336  5.833333333333334 11.015625  C 5.703125 10.79861111111111  5.629340277777778 10.672743055555554  5.611979166666666 10.638020833333336  C 5.5859375 10.594618055555554  5.562065972222222 10.52734375  5.540364583333334 10.436197916666664  C 5.5186631944444455 10.345052083333336  5.4991319444444455 10.282118055555554  5.481770833333334 10.247395833333336  C 5.4991319444444455 10.247395833333336  5.525173611111112 10.25390625  5.559895833333334 10.266927083333336  C 5.594618055555555 10.279947916666664  5.631510416666666 10.29513888888889  5.670572916666666 10.3125  C 5.709635416666666 10.32986111111111  5.7421875 10.347222222222223  5.768229166666666 10.364583333333336  C 5.794270833333334 10.381944444444443  5.802951388888889 10.394965277777777  5.794270833333334 10.403645833333336  C 5.768229166666666 10.464409722222223  5.776909722222222 10.540364583333336  5.8203125 10.631510416666664  C 5.863715277777778 10.72265625  5.915798611111112 10.80295138888889  5.9765625 10.872395833333336  C 6.037326388888889 10.941840277777777  6.111111111111112 11.024305555555554  6.197916666666666 11.119791666666664  C 6.284722222222223 11.215277777777777  6.336805555555557 11.27170138888889  6.354166666666666 11.2890625  C 6.40625 11.341145833333336  6.467013888888889 11.42578125  6.536458333333334 11.54296875  C 6.605902777777778 11.66015625  6.605902777777778 11.71875  6.536458333333334 11.71875  C 6.614583333333334 11.71875  6.701388888888889 11.764322916666664  6.796875 11.85546875  C 6.892361111111112 11.946614583333336  6.966145833333334 12.03125  7.018229166666666 12.109375  C 7.0616319444444455 12.178819444444443  7.096354166666666 12.291666666666664  7.122395833333334 12.447916666666664  C 7.1484375 12.604166666666664  7.170138888888889 12.708333333333336  7.1875 12.760416666666664  C 7.204861111111112 12.821180555555554  7.241753472222223 12.879774305555554  7.298177083333334 12.936197916666664  C 7.3546006944444455 12.992621527777777  7.408854166666666 13.033854166666664  7.4609375 13.059895833333336  L 7.669270833333334 13.1640625  C 7.669270833333334 13.1640625  7.7256944444444455 13.194444444444443  7.838541666666666 13.255208333333336  C 7.8819444444444455 13.272569444444443  7.962239583333334 13.31814236111111  8.079427083333334 13.391927083333336  C 8.196614583333334 13.465711805555554  8.289930555555557 13.515625  8.359375 13.541666666666664  C 8.446180555555557 13.57638888888889  8.515625 13.59375  8.567708333333334 13.59375  C 8.619791666666666 13.59375  8.682725694444445 13.582899305555554  8.756510416666666 13.561197916666664  C 8.83029513888889 13.539496527777777  8.88888888888889 13.524305555555554  8.932291666666666 13.515625  C 9.0625 13.49826388888889  9.188368055555557 13.563368055555554  9.309895833333334 13.7109375  C 9.43142361111111 13.858506944444443  9.522569444444445 13.949652777777777  9.583333333333334 13.984375  C 9.895833333333334 14.149305555555554  10.13454861111111 14.19704861111111  10.299479166666668 14.127604166666664  C 10.282118055555555 14.136284722222218  10.284288194444446 14.168836805555554  10.305989583333332 14.225260416666664  C 10.327690972222223 14.281684027777777  10.362413194444445 14.348958333333336  10.41015625 14.427083333333336  C 10.457899305555555 14.505208333333336  10.496961805555555 14.56814236111111  10.52734375 14.615885416666664  C 10.557725694444445 14.663628472222218  10.581597222222223 14.700520833333336  10.598958333333332 14.7265625  C 10.642361111111114 14.778645833333336  10.720486111111114 14.84375  10.833333333333332 14.921875  C 10.946180555555555 15  11.024305555555555 15.065104166666668  11.067708333333332 15.1171875  C 11.119791666666668 15.082465277777777  11.15017361111111 15.043402777777777  11.158854166666668 15  C 11.1328125 15.069444444444445  11.163194444444445 15.15625  11.25 15.260416666666668  C 11.336805555555555 15.364583333333332  11.414930555555555 15.407986111111109  11.484375 15.390625  C 11.605902777777779 15.364583333333332  11.666666666666668 15.225694444444445  11.666666666666668 14.973958333333336  C 11.397569444444445 15.104166666666668  11.184895833333332 15.026041666666668  11.028645833333332 14.739583333333336  C 11.028645833333332 14.730902777777777  11.017795138888891 14.70703125  10.99609375 14.66796875  C 10.97439236111111 14.62890625  10.95703125 14.59201388888889  10.944010416666668 14.557291666666664  C 10.930989583333332 14.522569444444443  10.920138888888891 14.485677083333336  10.911458333333332 14.446614583333336  C 10.902777777777779 14.407552083333336  10.902777777777779 14.375  10.911458333333332 14.348958333333336  C 10.920138888888891 14.322916666666664  10.941840277777779 14.309895833333336  10.9765625 14.309895833333336  C 11.054687500000002 14.309895833333336  11.098090277777779 14.29470486111111  11.106770833333332 14.264322916666664  C 11.115451388888891 14.233940972222218  11.106770833333332 14.1796875  11.080729166666668 14.1015625  C 11.0546875 14.0234375  11.037326388888891 13.96701388888889  11.028645833333332 13.932291666666664  C 11.019965277777779 13.862847222222218  10.972222222222223 13.776041666666664  10.885416666666668 13.671875  C 10.79861111111111 13.567708333333336  10.746527777777779 13.502604166666664  10.729166666666668 13.4765625  C 10.685763888888891 13.5546875  10.616319444444446 13.589409722222218  10.520833333333332 13.580729166666664  C 10.425347222222223 13.57204861111111  10.355902777777779 13.53298611111111  10.3125 13.463541666666664  C 10.312500000000002 13.472222222222218  10.305989583333336 13.49609375  10.29296875 13.53515625  C 10.279947916666668 13.57421875  10.273437500000002 13.602430555555554  10.2734375 13.619791666666664  C 10.160590277777779 13.619791666666664  10.09548611111111 13.61545138888889  10.078125 13.606770833333336  C 10.086805555555555 13.580729166666664  10.09765625 13.504774305555554  10.110677083333332 13.37890625  C 10.123697916666668 13.253038194444443  10.138888888888891 13.155381944444443  10.15625 13.0859375  C 10.164930555555555 13.051215277777777  10.188802083333332 12.999131944444443  10.227864583333332 12.9296875  C 10.266927083333332 12.860243055555554  10.299479166666668 12.797309027777777  10.325520833333332 12.740885416666664  C 10.3515625 12.684461805555554  10.36892361111111 12.630208333333336  10.377604166666668 12.578125  C 10.386284722222223 12.526041666666664  10.366753472222223 12.484809027777777  10.319010416666668 12.454427083333336  C 10.27126736111111 12.42404513888889  10.1953125 12.413194444444443  10.091145833333332 12.421875  C 9.926215277777779 12.430555555555554  9.813368055555557 12.51736111111111  9.752604166666666 12.682291666666664  C 9.74392361111111 12.708333333333336  9.730902777777779 12.75390625  9.713541666666666 12.819010416666664  C 9.696180555555557 12.884114583333336  9.674479166666666 12.934027777777777  9.6484375 12.96875  C 9.622395833333334 13.003472222222218  9.583333333333334 13.033854166666664  9.53125 13.059895833333336  C 9.47048611111111 13.0859375  9.366319444444445 13.094618055555554  9.21875 13.0859375  C 9.071180555555557 13.077256944444443  8.96701388888889 13.055555555555554  8.90625 13.020833333333336  C 8.793402777777779 12.95138888888889  8.695746527777779 12.825520833333336  8.61328125 12.643229166666664  C 8.530815972222223 12.4609375  8.489583333333334 12.300347222222218  8.489583333333334 12.161458333333336  C 8.489583333333334 12.074652777777777  8.500434027777779 11.959635416666664  8.522135416666666 11.81640625  C 8.543836805555557 11.673177083333336  8.55685763888889 11.56467013888889  8.561197916666666 11.490885416666664  C 8.565538194444445 11.417100694444443  8.541666666666666 11.31076388888889  8.489583333333334 11.171875  C 8.515625 11.15451388888889  8.5546875 11.11328125  8.606770833333334 11.048177083333336  C 8.658854166666666 10.983072916666664  8.702256944444445 10.9375  8.736979166666666 10.911458333333336  C 8.754340277777779 10.902777777777777  8.773871527777779 10.89626736111111  8.795572916666666 10.891927083333336  C 8.817274305555557 10.887586805555554  8.836805555555557 10.887586805555554  8.854166666666666 10.891927083333336  C 8.871527777777779 10.89626736111111  8.88888888888889 10.889756944444443  8.90625 10.872395833333336  C 8.92361111111111 10.855034722222223  8.936631944444445 10.828993055555554  8.9453125 10.794270833333336  C 8.936631944444445 10.785590277777777  8.919270833333334 10.772569444444443  8.893229166666666 10.755208333333336  C 8.8671875 10.729166666666664  8.84982638888889 10.716145833333336  8.841145833333334 10.716145833333336  C 8.901909722222223 10.7421875  9.02560763888889 10.735677083333336  9.212239583333334 10.696614583333336  C 9.398871527777779 10.657552083333336  9.518229166666666 10.6640625  9.5703125 10.716145833333336  C 9.700520833333334 10.811631944444443  9.796006944444445 10.80295138888889  9.856770833333334 10.690104166666664  C 9.856770833333334 10.68142361111111  9.84592013888889 10.640190972222223  9.82421875 10.56640625  C 9.80251736111111 10.492621527777777  9.800347222222223 10.434027777777777  9.817708333333334 10.390625  C 9.86111111111111 10.625  9.986979166666666 10.6640625  10.1953125 10.5078125  C 10.221354166666668 10.533854166666664  10.288628472222223 10.555555555555554  10.397135416666668 10.572916666666664  C 10.50564236111111 10.590277777777777  10.581597222222223 10.611979166666664  10.625 10.638020833333336  C 10.651041666666668 10.655381944444443  10.681423611111114 10.679253472222223  10.716145833333332 10.709635416666664  C 10.750868055555555 10.74001736111111  10.774739583333332 10.75954861111111  10.787760416666668 10.768229166666664  C 10.80078125 10.776909722222223  10.822482638888891 10.774739583333336  10.852864583333332 10.76171875  C 10.883246527777779 10.748697916666664  10.920138888888891 10.72048611111111  10.963541666666668 10.677083333333336  C 11.050347222222223 10.79861111111111  11.102430555555555 10.902777777777777  11.119791666666668 10.989583333333336  C 11.215277777777779 11.336805555555554  11.297743055555555 11.527777777777777  11.3671875 11.5625  C 11.427951388888891 11.588541666666664  11.475694444444445 11.597222222222223  11.510416666666668 11.588541666666664  C 11.545138888888891 11.57986111111111  11.564670138888891 11.538628472222223  11.569010416666668 11.46484375  C 11.573350694444445 11.391059027777777  11.573350694444445 11.33029513888889  11.569010416666668 11.282552083333336  C 11.564670138888891 11.234809027777777  11.558159722222223 11.180555555555554  11.549479166666668 11.119791666666664  L 11.536458333333332 11.015625  L 11.536458333333332 10.78125  L 11.5234375 10.677083333333336  C 11.393229166666668 10.651041666666664  11.312934027777779 10.598958333333336  11.282552083333332 10.520833333333336  C 11.252170138888891 10.442708333333336  11.258680555555555 10.362413194444443  11.302083333333332 10.279947916666664  C 11.345486111111114 10.19748263888889  11.410590277777779 10.1171875  11.497395833333332 10.0390625  C 11.506076388888891 10.030381944444443  11.54079861111111 10.015190972222223  11.6015625 9.993489583333332  C 11.662326388888891 9.971788194444445  11.729600694444445 9.94357638888889  11.803385416666668 9.908854166666668  C 11.877170138888891 9.874131944444445  11.931423611111114 9.839409722222221  11.966145833333332 9.8046875  C 12.1484375 9.639756944444445  12.213541666666668 9.487847222222221  12.161458333333332 9.348958333333332  C 12.222222222222223 9.348958333333332  12.269965277777779 9.309895833333332  12.3046875 9.231770833333332  C 12.296006944444445 9.231770833333332  12.274305555555555 9.21875  12.239583333333332 9.192708333333332  C 12.204861111111114 9.166666666666668  12.172309027777779 9.144965277777777  12.141927083333332 9.127604166666668  C 12.111545138888891 9.110243055555555  12.092013888888891 9.1015625  12.083333333333332 9.1015625  C 12.161458333333332 9.058159722222221  12.170138888888891 8.988715277777777  12.109375 8.893229166666668  C 12.152777777777779 8.8671875  12.18532986111111 8.819444444444445  12.20703125 8.75  C 12.228732638888891 8.680555555555555  12.261284722222223 8.637152777777777  12.3046875 8.619791666666668  C 12.382812500000002 8.723958333333332  12.473958333333336 8.73263888888889  12.578125 8.645833333333332  C 12.647569444444445 8.57638888888889  12.651909722222223 8.506944444444445  12.591145833333332 8.4375  C 12.634548611111114 8.376736111111109  12.723524305555555 8.331163194444445  12.858072916666668 8.30078125  C 12.992621527777779 8.270399305555554  13.072916666666668 8.229166666666664  13.098958333333332 8.177083333333332  C 13.159722222222223 8.194444444444445  13.194444444444445 8.18576388888889  13.203125 8.151041666666668  C 13.211805555555555 8.116319444444445  13.216145833333332 8.064236111111109  13.216145833333332 7.994791666666668  C 13.216145833333332 7.925347222222221  13.229166666666668 7.873263888888888  13.255208333333332 7.838541666666668  C 13.289930555555555 7.795138888888888  13.355034722222223 7.756076388888888  13.450520833333332 7.721354166666668  C 13.546006944444446 7.686631944444445  13.602430555555555 7.664930555555554  13.619791666666668 7.65625  L 13.841145833333332 7.513020833333332  C 13.8671875 7.478298611111109  13.8671875 7.4609375  13.841145833333332 7.4609375  C 13.997395833333332 7.478298611111109  14.131944444444446 7.430555555555555  14.244791666666668 7.317708333333332  C 14.331597222222223 7.222222222222221  14.305555555555555 7.135416666666668  14.166666666666668 7.057291666666668  C 14.192708333333332 7.005208333333332  14.1796875 6.963975694444445  14.127604166666668 6.93359375  C 14.075520833333332 6.903211805555554  14.010416666666668 6.879340277777777  13.932291666666668 6.861979166666668  C 13.958333333333332 6.853298611111109  14.008246527777779 6.851128472222221  14.08203125 6.85546875  C 14.155815972222223 6.859809027777777  14.201388888888891 6.853298611111109  14.21875 6.8359375  C 14.348958333333332 6.749131944444445  14.318576388888891 6.6796875  14.127604166666668 6.627604166666668  Z M 11.419270833333332 17.994791666666668  C 11.419270833333332 18.046875  11.427951388888891 18.116319444444443  11.4453125 18.203125  C 13.233506944444445 17.890625  14.756944444444446 17.0703125  16.015625 15.7421875  C 15.989583333333332 15.716145833333332  15.935329861111114 15.696614583333332  15.852864583333332 15.68359375  C 15.770399305555555 15.670572916666668  15.716145833333332 15.655381944444445  15.690104166666668 15.638020833333332  C 15.533854166666668 15.577256944444445  15.4296875 15.542534722222223  15.377604166666668 15.533854166666668  C 15.386284722222223 15.473090277777777  15.375434027777779 15.416666666666668  15.345052083333332 15.364583333333332  C 15.314670138888891 15.3125  15.279947916666668 15.2734375  15.240885416666668 15.247395833333332  C 15.201822916666668 15.221354166666668  15.147569444444446 15.186631944444445  15.078125 15.143229166666668  C 15.008680555555555 15.099826388888891  14.9609375 15.069444444444445  14.934895833333332 15.052083333333332  C 14.917534722222223 15.034722222222223  14.887152777777779 15.008680555555555  14.84375 14.973958333333336  C 14.800347222222223 14.93923611111111  14.769965277777779 14.915364583333336  14.752604166666668 14.90234375  C 14.735243055555555 14.889322916666664  14.702690972222223 14.869791666666664  14.654947916666668 14.84375  C 14.607204861111114 14.817708333333336  14.5703125 14.809027777777777  14.544270833333332 14.817708333333336  C 14.518229166666668 14.82638888888889  14.474826388888891 14.830729166666664  14.4140625 14.830729166666664  L 14.375 14.84375  C 14.348958333333332 14.852430555555554  14.325086805555555 14.86328125  14.303385416666668 14.876302083333336  C 14.281684027777779 14.889322916666664  14.2578125 14.90234375  14.231770833333332 14.915364583333336  C 14.205729166666668 14.928385416666664  14.188368055555555 14.94140625  14.1796875 14.954427083333336  C 14.171006944444446 14.967447916666664  14.171006944444446 14.97829861111111  14.1796875 14.986979166666664  C 13.997395833333332 14.839409722222218  13.841145833333332 14.74392361111111  13.7109375 14.700520833333336  C 13.667534722222223 14.691840277777777  13.619791666666668 14.66796875  13.567708333333332 14.62890625  C 13.515625 14.58984375  13.470052083333332 14.559461805555554  13.430989583333332 14.537760416666664  C 13.391927083333332 14.516059027777777  13.348524305555555 14.50954861111111  13.30078125 14.518229166666664  C 13.253038194444445 14.526909722222218  13.203125 14.557291666666664  13.151041666666668 14.609375  C 13.107638888888891 14.652777777777777  13.081597222222223 14.717881944444443  13.072916666666668 14.8046875  C 13.06423611111111 14.891493055555554  13.055555555555555 14.947916666666664  13.046875 14.973958333333336  C 12.98611111111111 14.930555555555554  12.98611111111111 14.854600694444443  13.046875 14.74609375  C 13.107638888888891 14.637586805555554  13.116319444444445 14.557291666666664  13.072916666666668 14.505208333333336  C 13.046875 14.453125  13.001302083333332 14.43359375  12.936197916666668 14.446614583333336  C 12.87109375 14.459635416666664  12.819010416666668 14.479166666666664  12.779947916666668 14.505208333333336  C 12.740885416666668 14.53125  12.690972222222223 14.56814236111111  12.630208333333332 14.615885416666664  C 12.569444444444446 14.663628472222218  12.530381944444446 14.691840277777777  12.513020833333332 14.700520833333336  C 12.495659722222223 14.70920138888889  12.45876736111111 14.733072916666664  12.40234375 14.772135416666664  C 12.345920138888891 14.811197916666664  12.309027777777779 14.84375  12.291666666666668 14.869791666666664  C 12.265625 14.90451388888889  12.239583333333332 14.956597222222218  12.213541666666668 15.026041666666668  C 12.1875 15.095486111111109  12.16579861111111 15.143229166666668  12.1484375 15.169270833333332  C 12.131076388888891 15.134548611111109  12.081163194444445 15.106336805555555  11.998697916666668 15.084635416666668  C 11.916232638888891 15.062934027777777  11.875000000000002 15.0390625  11.875 15.013020833333332  C 11.89236111111111 15.099826388888891  11.909722222222223 15.251736111111109  11.927083333333332 15.46875  C 11.944444444444446 15.685763888888886  11.966145833333336 15.850694444444445  11.9921875 15.963541666666668  C 12.052951388888891 16.23263888888889  12.000868055555555 16.44097222222222  11.8359375 16.588541666666668  C 11.601562500000002 16.805555555555557  11.475694444444446 16.979166666666668  11.458333333333332 17.109375  C 11.423611111111114 17.30034722222222  11.475694444444446 17.413194444444443  11.614583333333332 17.447916666666668  C 11.614583333333332 17.508680555555557  11.57986111111111 17.59765625  11.510416666666668 17.71484375  C 11.440972222222223 17.83203125  11.410590277777779 17.92534722222222  11.419270833333332 17.994791666666668  Z " fill-rule="nonzero" fill="#ffffff" stroke="none" transform="matrix(1 0 0 1 406 7448 )" />
  </g>
</svg>