<?xml version="1.0" encoding="utf-8"?>
<svg version="1.1" xmlns:xlink="http://www.w3.org/1999/xlink" width="27px" height="27px" xmlns="http://www.w3.org/2000/svg">
  <g transform="matrix(1 0 0 1 -784 -7503 )">
    <path d="M 5.0625 0  L 21.9375 0  C 23.332031250000004 0  24.524414062500004 0.49511718749999833  25.5146484375 1.4853515625000009  C 26.5048828125 2.475585937499998  27 3.6679687499999964  27 5.0625  L 27 21.9375  C 27 23.332031249999996  26.5048828125 24.524414062500004  25.5146484375 25.5146484375  C 24.524414062500004 26.5048828125  23.332031250000004 27  21.9375 27  L 18.6328125 27  L 18.6328125 16.541015624999996  L 22.130859375 16.541015624999996  L 22.658203125 12.462890624999998  L 18.6328125 12.462890624999998  L 18.6328125 9.861328125  C 18.6328125 9.205078124999996  18.770507812500004 8.712890624999996  19.0458984375 8.384765625  C 19.3212890625 8.056640625  19.857421875000004 7.892578125000001  20.654296875 7.892578125000001  L 22.798828125 7.874999999999999  L 22.798828125 4.236328124999999  C 22.060546875 4.130859374999999  21.017578125000004 4.078124999999999  19.669921875 4.078124999999999  C 18.076171875000004 4.078124999999999  16.8017578125 4.546874999999997  15.8466796875 5.484375  C 14.891601562500002 6.421875  14.414062499999998 7.746093749999998  14.414062499999998 9.457031249999998  L 14.414062499999998 12.462890624999998  L 10.8984375 12.462890624999998  L 10.8984375 16.541015624999996  L 14 16.541015624999996  L 14 27  L 5.0625 27  C 3.66796875 27  2.4755859375000004 26.5048828125  1.4853515625 25.5146484375  C 0.49511718749999994 24.524414062500004  0 23.332031249999996  0 21.9375  L 0 5.0625  C 0 3.6679687499999964  0.49511718749999994 2.475585937499998  1.4853515625 1.4853515625000009  C 2.4755859375000004 0.49511718749999833  3.66796875 0  5.0625 0  Z " fill-rule="nonzero" fill="#ffffff" stroke="none" transform="matrix(1 0 0 1 784 7503 )" />
  </g>
</svg>