<?xml version="1.0" encoding="utf-8"?>
<svg version="1.1" xmlns:xlink="http://www.w3.org/1999/xlink" width="27px" height="27px" xmlns="http://www.w3.org/2000/svg">
  <g transform="matrix(1 0 0 1 -841 -7503 )">
    <path d="M 4.166015625 10.406249999999998  L 4.166015625 22.60546875  L 8.2265625 22.60546875  L 8.2265625 10.406249999999998  L 4.166015625 10.406249999999998  Z M 7.857421875 8.1474609375  C 8.279296875000002 7.743164062499999  8.490234375000002 7.242187499999999  8.490234375 6.64453125  C 8.478515625000002 6.035156249999997  8.267578125000002 5.531249999999998  7.857421875 5.132812499999999  C 7.447265625 4.734375  6.90234375 4.53515625  6.22265625 4.53515625  C 5.542968750000001 4.53515625  4.989257812500001 4.734375  4.5615234375 5.132812499999999  C 4.133789062500001 5.531249999999998  3.9199218749999996 6.035156249999997  3.9199218749999996 6.64453125  C 3.9199218749999996 7.242187499999999  4.1279296875 7.743164062499999  4.5439453125 8.1474609375  C 4.9599609375 8.551757812500002  5.501953125 8.75390625  6.169921875 8.75390625  L 6.1875 8.75390625  C 6.878906250000001 8.75390625  7.435546875000002 8.551757812500002  7.857421875 8.1474609375  Z M 18.7734375 16.083984375  L 18.7734375 22.60546875  L 22.833984375 22.60546875  L 22.833984375 15.609375  C 22.833984375 13.804687499999996  22.40625 12.439453124999998  21.55078125 11.513671874999998  C 20.695312500000004 10.587890625  19.564453125 10.125  18.158203125 10.125  C 16.564453125 10.125  15.339843750000002 10.810546875  14.484375000000002 12.181640625  L 14.519531249999998 12.181640625  L 14.519531249999998 10.406249999999998  L 10.458984375 10.406249999999998  C 10.494140625 11.1796875  10.494140625 15.246093749999998  10.458984375 22.60546875  L 14.519531249999998 22.60546875  L 14.519531249999998 15.785156250000002  C 14.519531249999998 15.339843750000002  14.560546875000002 15.011718749999998  14.642578125000002 14.800781249999998  C 14.818359375 14.390625000000002  15.08203125 14.041992187499996  15.433593750000002 13.754882812500002  C 15.785156249999998 13.467773437499998  16.218750000000004 13.324218750000002  16.734375 13.324218750000002  C 18.09375 13.324218750000002  18.7734375 14.244140624999998  18.7734375 16.083984375  Z M 25.5146484375 1.4853515625000009  C 26.5048828125 2.475585937499998  27 3.6679687499999964  27 5.0625  L 27 21.9375  C 27 23.332031249999996  26.5048828125 24.524414062500004  25.5146484375 25.5146484375  C 24.524414062500004 26.5048828125  23.332031250000004 27  21.9375 27  L 5.0625 27  C 3.66796875 27  2.4755859375000004 26.5048828125  1.4853515625 25.5146484375  C 0.49511718749999994 24.524414062500004  0 23.332031249999996  0 21.9375  L 0 5.0625  C 0 3.6679687499999964  0.49511718749999994 2.475585937499998  1.4853515625 1.4853515625000009  C 2.4755859375000004 0.49511718749999833  3.66796875 0  5.0625 0  L 21.9375 0  C 23.332031250000004 0  24.524414062500004 0.49511718749999833  25.5146484375 1.4853515625000009  Z " fill-rule="nonzero" fill="#ffffff" stroke="none" transform="matrix(1 0 0 1 841 7503 )" />
  </g>
</svg>