<?xml version="1.0" encoding="utf-8"?>
<svg version="1.1" xmlns:xlink="http://www.w3.org/1999/xlink" width="27px" height="27px" xmlns="http://www.w3.org/2000/svg">
  <g transform="matrix(1 0 0 1 -897 -7503 )">
    <path d="M 16.681640625 16.681640625000004  C 17.560546875 15.802734374999998  18 14.7421875  18 13.5  C 18 12.257812499999998  17.560546875 11.197265624999998  16.681640625 10.318359375000002  C 15.802734375000002 9.439453125  14.742187500000002 9.000000000000002  13.5 9.000000000000002  C 12.2578125 9.000000000000002  11.197265625 9.439453125  10.318359375 10.318359375000002  C 9.439453125 11.197265624999998  9 12.257812499999998  9 13.5  C 9 14.7421875  9.439453125 15.802734374999998  10.318359375 16.681640625000004  C 11.197265625 17.560546875  12.2578125 18.000000000000004  13.5 18.000000000000004  C 14.742187500000002 18.000000000000004  15.802734375000002 17.560546875  16.681640625 16.681640625000004  Z M 18.404296875 8.595703125  C 19.751953125000004 9.943359374999996  20.42578125 11.578124999999996  20.42578125 13.5  C 20.42578125 15.421875  19.751953125000004 17.056640625  18.404296875 18.404296875  C 17.056640625 19.751953125  15.421875 20.42578125  13.5 20.42578125  C 11.578125 20.42578125  9.943359375 19.751953125  8.595703125 18.404296875  C 7.248046875000001 17.056640625  6.57421875 15.421875  6.57421875 13.5  C 6.57421875 11.578124999999996  7.248046875000001 9.943359374999996  8.595703125 8.595703125  C 9.943359375 7.248046874999997  11.578125 6.574218750000001  13.5 6.574218750000001  C 15.421875 6.574218750000001  17.056640625 7.248046874999997  18.404296875 8.595703125  Z M 21.849609375 5.150390625000001  C 22.166015625 5.466796875000001  22.32421875 5.847656249999998  22.32421875 6.292968749999999  C 22.32421875 6.73828125  22.166015625 7.119140625  21.849609375 7.435546875  C 21.533203125 7.751953125  21.15234375 7.91015625  20.70703125 7.91015625  C 20.26171875 7.91015625  19.880859375 7.751953125  19.564453125 7.435546875  C 19.248046875 7.119140625  19.08984375 6.73828125  19.08984375 6.292968749999999  C 19.08984375 5.847656249999998  19.248046875 5.466796875000001  19.564453125 5.150390625000001  C 19.880859375 4.833984375000001  20.26171875 4.675781250000001  20.70703125 4.675781250000001  C 21.15234375 4.675781250000001  21.533203125 4.833984375000001  21.849609375 5.150390625000001  Z M 14.8447265625 2.416992187499999  C 14.030273437500002 2.422851562499998  13.582031250000002 2.42578125  13.5 2.42578125  C 13.41796875 2.42578125  12.9697265625 2.422851562499998  12.1552734375 2.416992187499999  C 11.3408203125 2.4111328124999973  10.72265625 2.4111328124999973  10.30078125 2.416992187499999  C 9.87890625 2.422851562499998  9.3134765625 2.4404296874999996  8.6044921875 2.469726562499999  C 7.895507812500002 2.4990234374999982  7.291992187500001 2.5576171875  6.793945312500001 2.645507812500001  C 6.295898437500001 2.733398437499999  5.876953125000001 2.8417968749999982  5.537109375 2.970703124999999  C 4.951171875000001 3.2050781249999996  4.435546875 3.5449218749999973  3.9902343750000004 3.990234375000001  C 3.5449218750000004 4.435546874999998  3.205078125 4.951171874999998  2.970703125 5.537109375  C 2.841796875 5.876953124999997  2.7333984375 6.295898437499998  2.6455078125 6.793945312499999  C 2.5576171875 7.2919921875  2.4990234375 7.895507812499997  2.4697265625 8.604492187500002  C 2.4404296875 9.313476562499998  2.4228515625000004 9.878906249999998  2.4169921875 10.300781249999998  C 2.4111328125000004 10.722656249999998  2.4111328125000004 11.340820312499996  2.4169921875 12.1552734375  C 2.4228515625000004 12.969726562499998  2.42578125 13.417968749999998  2.42578125 13.5  C 2.42578125 13.58203125  2.4228515625000004 14.0302734375  2.4169921875 14.8447265625  C 2.4111328125000004 15.6591796875  2.4111328125000004 16.277343749999996  2.4169921875 16.699218749999996  C 2.4228515625000004 17.121093749999996  2.4404296875 17.686523437499996  2.4697265625 18.395507812500004  C 2.4990234375 19.104492187499996  2.5576171875 19.708007812499996  2.6455078125 20.206054687499996  C 2.7333984375 20.7041015625  2.841796875 21.123046874999996  2.970703125 21.462890625  C 3.205078125 22.048828125  3.5449218750000004 22.564453125  3.9902343750000004 23.009765625  C 4.435546875 23.455078125  4.951171875000001 23.794921875  5.537109375 24.029296875  C 5.876953125000001 24.158203125  6.295898437500001 24.2666015625  6.793945312500001 24.3544921875  C 7.291992187500001 24.4423828125  7.895507812500002 24.5009765625  8.6044921875 24.5302734375  C 9.3134765625 24.5595703125  9.87890625 24.577148437500004  10.30078125 24.5830078125  C 10.72265625 24.5888671875  11.3408203125 24.5888671875  12.1552734375 24.5830078125  C 12.9697265625 24.577148437500004  13.41796875 24.57421875  13.5 24.57421875  C 13.582031250000002 24.57421875  14.030273437500002 24.577148437500004  14.8447265625 24.5830078125  C 15.6591796875 24.5888671875  16.27734375 24.5888671875  16.69921875 24.5830078125  C 17.12109375 24.577148437500004  17.6865234375 24.5595703125  18.3955078125 24.5302734375  C 19.104492187500004 24.5009765625  19.7080078125 24.4423828125  20.2060546875 24.3544921875  C 20.7041015625 24.2666015625  21.123046875000004 24.158203125  21.462890625 24.029296875  C 22.048828125 23.794921875  22.564453125 23.455078125  23.009765625 23.009765625  C 23.455078125000004 22.564453125  23.794921875 22.048828125  24.029296875 21.462890625  C 24.158203125 21.123046874999996  24.2666015625 20.7041015625  24.3544921875 20.206054687499996  C 24.4423828125 19.708007812499996  24.5009765625 19.104492187499996  24.5302734375 18.395507812500004  C 24.5595703125 17.686523437499996  24.577148437500004 17.121093749999996  24.5830078125 16.699218749999996  C 24.588867187500004 16.277343749999996  24.588867187500004 15.6591796875  24.5830078125 14.8447265625  C 24.577148437500004 14.0302734375  24.57421875 13.58203125  24.57421875 13.5  C 24.57421875 13.417968749999998  24.577148437500004 12.969726562499998  24.5830078125 12.1552734375  C 24.588867187500004 11.340820312499996  24.588867187500004 10.722656249999998  24.5830078125 10.300781249999998  C 24.577148437500004 9.878906249999998  24.5595703125 9.313476562499998  24.5302734375 8.604492187500002  C 24.5009765625 7.895507812499997  24.4423828125 7.2919921875  24.3544921875 6.793945312499999  C 24.2666015625 6.295898437499998  24.158203125 5.876953124999997  24.029296875 5.537109375  C 23.794921875 4.951171874999998  23.455078125000004 4.435546874999998  23.009765625 3.990234375000001  C 22.564453125 3.5449218749999973  22.048828125 3.2050781249999996  21.462890625 2.970703124999999  C 21.123046875000004 2.8417968749999982  20.7041015625 2.733398437499999  20.2060546875 2.645507812500001  C 19.7080078125 2.5576171875  19.104492187500004 2.4990234374999982  18.3955078125 2.469726562499999  C 17.6865234375 2.4404296874999996  17.12109375 2.422851562499998  16.69921875 2.416992187499999  C 16.27734375 2.4111328124999973  15.6591796875 2.4111328124999973  14.8447265625 2.416992187499999  Z M 26.912109375 7.927734374999999  C 26.970703124999996 8.958984374999998  27 10.816406249999998  27 13.5  C 27 16.18359375  26.970703124999996 18.041015625  26.912109375 19.072265624999996  C 26.794921875 21.509765625  26.068359375 23.396484375  24.732421875 24.732421875  C 23.396484375 26.068359375  21.509765625 26.794921875  19.072265625 26.912109375  C 18.041015625 26.970703124999996  16.18359375 27  13.5 27  C 10.81640625 27  8.958984375 26.970703124999996  7.927734375000001 26.912109375  C 5.490234375000001 26.794921875  3.6035156250000004 26.068359375  2.267578125 24.732421875  C 0.9316406250000001 23.396484375  0.20507812500000003 21.509765625  0.087890625 19.072265624999996  C 0.029296874999999997 18.041015625  0 16.18359375  0 13.5  C 0 10.816406249999998  0.029296874999999997 8.958984374999998  0.087890625 7.927734374999999  C 0.20507812500000003 5.490234374999998  0.9316406250000001 3.603515624999999  2.267578125 2.267578125  C 3.6035156250000004 0.931640625000001  5.490234375000001 0.20507812499999833  7.927734375000001 0.087890625000001  C 8.958984375 0.029296874999996336  10.81640625 0  13.5 0  C 16.18359375 0  18.041015625 0.029296874999996336  19.072265625 0.087890625000001  C 21.509765625 0.20507812499999833  23.396484375 0.931640625000001  24.732421875 2.267578125  C 26.068359375 3.603515624999999  26.794921875 5.490234374999998  26.912109375 7.927734374999999  Z " fill-rule="nonzero" fill="#ffffff" stroke="none" transform="matrix(1 0 0 1 897 7503 )" />
  </g>
</svg>