<?xml version="1.0" encoding="utf-8"?>
<svg version="1.1" xmlns:xlink="http://www.w3.org/1999/xlink" width="105px" height="84px" xmlns="http://www.w3.org/2000/svg">
  <defs>
    <path d="M 0 0  L 427.47 0  L 427.47 331.55  L 0 331.55  Z " fill-rule="evenodd" fill="black" id="path39" />
    <clipPath id="clip40">
      <use xlink:href="#path39" />
    </clipPath>
    <style type="text/css">
	.st0{fill:#169BD5;}
</style>
    <defs>
</defs>
    <g>
	<path class="st0" d="M427.26,0c0,9.48,0.55,17.94-0.11,26.31c-1.4,17.78-9.23,30.57-26.89,37.74   c-31.05,12.6-54.81,33.19-65.12,66.49c-0.98,3.15-1.49,6.45-2.52,10.98c31.65,0,62.31,0,93.87,0c0.33,4.7,0.81,8.34,0.82,11.98   c0.04,42.32,0.08,84.65-0.04,126.97c-0.09,31.01-19.73,50.78-50.68,50.9c-42.32,0.16-84.65,0.08-126.97,0.05   c-3.32,0-6.65-0.43-9.54-0.63c-0.91-1.18-1.86-1.82-1.86-2.47c-0.33-51.53-5.25-103.44,6.42-154.23   c13.78-59.95,39.29-113.38,93.07-148.64c22.13-14.51,47.34-19.61,72.94-23.4C415.64,1.29,420.68,0.79,427.26,0z" />
	<path class="st0" d="M1.17,331.45c-1.9-83.56-6.85-165.82,38.09-240.51C69.69,40.36,112.3,8.82,171.88,2.23   c5.41-0.6,10.8-1.41,16.14-2.12c9.04,30.89-1.18,52.65-29.51,65.76c-32.23,14.92-55.45,37.86-63.23,75.46c31.57,0,62.21,0,94.97,0   c0,5.56,0,9.98,0,14.4c0,40.2,0.05,80.4,0,120.6c-0.05,36.84-18.91,55.38-55.6,55.21c-37.24-0.18-74.48-0.07-111.71-0.09   C15.86,331.45,8.77,331.45,1.17,331.45z" />
</g>
    <filter x="-50.00%" y="-50.00%" width="200.00%" height="200.00%" filterUnits="objectBoundingBox" id="filter41">
      <feColorMatrix type="matrix" values="1 0 0 0 0  0 1 0 0 0  0 0 1 0 0  0 0 0 1 0  " in="SourceGraphic" />
    </filter>
    <filter x="318px" y="5782px" width="105px" height="84px" filterUnits="userSpaceOnUse" id="filter42">
      <feOffset dx="2" dy="2" in="SourceAlpha" result="shadowOffsetInner" />
      <feGaussianBlur stdDeviation="2.5" in="shadowOffsetInner" result="shadowGaussian" />
      <feComposite in2="shadowGaussian" operator="atop" in="SourceAlpha" result="shadowComposite" />
      <feColorMatrix type="matrix" values="0 0 0 0 0.1803921568627451  0 0 0 0 0.4549019607843137  0 0 0 0 0.7058823529411764  0 0 0 0.6470588235294118 0  " in="shadowComposite" />
    </filter>
    <g id="widget43">
      <g transform="matrix(0.22223781785856317 0 0 0.22223781785856317 321 5785.158525744497 )" clip-path="url(#clip40)" filter="url(#filter41)">
        <style type="text/css">
	.st0{fill:#169BD5;}
</style>
        <g>
	<path class="st0" d="M427.26,0c0,9.48,0.55,17.94-0.11,26.31c-1.4,17.78-9.23,30.57-26.89,37.74   c-31.05,12.6-54.81,33.19-65.12,66.49c-0.98,3.15-1.49,6.45-2.52,10.98c31.65,0,62.31,0,93.87,0c0.33,4.7,0.81,8.34,0.82,11.98   c0.04,42.32,0.08,84.65-0.04,126.97c-0.09,31.01-19.73,50.78-50.68,50.9c-42.32,0.16-84.65,0.08-126.97,0.05   c-3.32,0-6.65-0.43-9.54-0.63c-0.91-1.18-1.86-1.82-1.86-2.47c-0.33-51.53-5.25-103.44,6.42-154.23   c13.78-59.95,39.29-113.38,93.07-148.64c22.13-14.51,47.34-19.61,72.94-23.4C415.64,1.29,420.68,0.79,427.26,0z" />
	<path class="st0" d="M1.17,331.45c-1.9-83.56-6.85-165.82,38.09-240.51C69.69,40.36,112.3,8.82,171.88,2.23   c5.41-0.6,10.8-1.41,16.14-2.12c9.04,30.89-1.18,52.65-29.51,65.76c-32.23,14.92-55.45,37.86-63.23,75.46c31.57,0,62.21,0,94.97,0   c0,5.56,0,9.98,0,14.4c0,40.2,0.05,80.4,0,120.6c-0.05,36.84-18.91,55.38-55.6,55.21c-37.24-0.18-74.48-0.07-111.71-0.09   C15.86,331.45,8.77,331.45,1.17,331.45z" />
</g>
      </g>
    </g>
  </defs>
  <g transform="matrix(1 0 0 1 -318 -5782 )">
    <use xlink:href="#widget43" filter="url(#filter42)" />
    <use xlink:href="#widget43" />
  </g>
</svg>