<?xml version="1.0" encoding="utf-8"?>
<svg version="1.1" xmlns:xlink="http://www.w3.org/1999/xlink" width="25px" height="25px" xmlns="http://www.w3.org/2000/svg">
  <defs>
    <filter x="457px" y="5753px" width="25px" height="25px" filterUnits="userSpaceOnUse" id="filter46">
      <feOffset dx="2" dy="2" in="SourceAlpha" result="shadowOffsetInner" />
      <feGaussianBlur stdDeviation="2.5" in="shadowOffsetInner" result="shadowGaussian" />
      <feComposite in2="shadowGaussian" operator="atop" in="SourceAlpha" result="shadowComposite" />
      <feColorMatrix type="matrix" values="0 0 0 0 0.1803921568627451  0 0 0 0 0.4549019607843137  0 0 0 0 0.7058823529411764  0 0 0 0.6470588235294118 0  " in="shadowComposite" />
    </filter>
    <g id="widget47">
      <path d="M 14.495192307692308 5.378071833648393  C 14.83173076923077 5.434782608695653  15 5.579710144927536  15 5.812854442344046  C 15 5.951480781348455  14.921875000000002 6.102709514807812  14.765625 6.266540642722117  L 11.493389423076923 9.612476370510397  L 12.268629807692308 14.338374291115311  C 12.274639423076923 14.382482671707626  12.277644230769232 14.445494643982355  12.277644230769232 14.527410207939509  C 12.277644230769232 14.659735349716446  12.24609375 14.771581600504096  12.182992788461538 14.862948960302457  C 12.119891826923077 14.95431632010082  12.028245192307693 15  11.908052884615385 15  C 11.793870192307693 15  11.673677884615385 14.962192816635161  11.547475961538462 14.886578449905482  L 7.5 12.655954631379963  L 3.4525240384615383 14.886578449905482  C 3.3203125000000004 14.962192816635161  3.200120192307692 15  3.0919471153846154 15  C 2.965745192307692 15  2.87109375 14.95431632010082  2.8079927884615383 14.862948960302457  C 2.744891826923077 14.771581600504096  2.7133413461538463 14.659735349716446  2.7133413461538463 14.527410207939509  C 2.7133413461538463 14.48960302457467  2.7193509615384617 14.426591052299937  2.731370192307692 14.338374291115311  L 3.506610576923077 9.612476370510397  L 0.22536057692307693 6.266540642722117  C 0.0751201923076923 6.09640831758034  0 5.945179584120984  0 5.812854442344046  C 0 5.579710144927536  0.16826923076923075 5.434782608695653  0.5048076923076923 5.378071833648393  L 5.030048076923077 4.688090737240075  L 7.058293269230769 0.3875236294896023  C 7.172475961538463 0.1291745431632002  7.319711538461538 0  7.5 0  C 7.680288461538461 0  7.827524038461538 0.1291745431632002  7.941706730769232 0.3875236294896023  L 9.969951923076923 4.688090737240075  L 14.495192307692308 5.378071833648393  Z " fill-rule="nonzero" fill="#169bd5" stroke="none" transform="matrix(1 0 0 1 460 5756 )" />
    </g>
  </defs>
  <g transform="matrix(1 0 0 1 -457 -5753 )">
    <use xlink:href="#widget47" filter="url(#filter46)" />
    <use xlink:href="#widget47" />
  </g>
</svg>